<svg xmlns="http://www.w3.org/2000/svg" viewBox="0 0 480 240"><rect width="480" height="240" fill="#eeede9"/><path d="M0 205h480M318 0v205" stroke="#d5d3cb"/><path d="M124 35h154v137H124z" fill="#f9f9f6" stroke="#c8c6bd" stroke-width="3"/><path d="M201 35v137M124 110h154" stroke="#c8c6bd" stroke-width="3"/><path d="M112 35v145m177-145v145" stroke="#e0ddd4" stroke-width="13"/><rect x="143" y="205" width="155" height="5" rx="2" fill="#d4d0c7"/><path d="M354 206v-43m0 25c-35-8-32-28-32-28 30 0 32 28 32 28m0-13c30-8 29-34 29-34-30 4-29 34-29 34" fill="#c3c7bc"/><path d="M339 204h30l-4 24h-22z" fill="#d2cbc0"/></svg>
